<svg width="680" height="780" viewBox="0 0 680 780" xmlns="http://www.w3.org/2000/svg" style="background:#ffffff;">
<defs><marker id="arr2" viewBox="0 0 10 10" refX="8" refY="5" markerWidth="6" markerHeight="6" orient="auto-start-reverse"><path d="M2 1L8 5L2 9" fill="none" stroke="#aaaaaa" stroke-width="1.5" stroke-linecap="round" stroke-linejoin="round"/></marker></defs>

<!-- Legend -->
<rect x="40" y="40" width="12" height="12" rx="2" fill="#F1EFE8" stroke="#888780" stroke-width="0.5"/>
<text x="60" y="51" font-size="11" fill="#555" font-family="Georgia, serif">Identify</text>
<rect x="40" y="60" width="12" height="12" rx="2" fill="#E1F5EE" stroke="#1D9E75" stroke-width="0.5"/>
<text x="60" y="71" font-size="11" fill="#555" font-family="Georgia, serif">Build</text>
<rect x="40" y="80" width="12" height="12" rx="2" fill="#FAECE7" stroke="#D85A30" stroke-width="0.5"/>
<text x="60" y="91" font-size="11" fill="#555" font-family="Georgia, serif">Deploy</text>

<!-- Box 1 -->
<rect x="195" y="120" width="290" height="56" rx="8" fill="#F1EFE8" stroke="#888780" stroke-width="0.5"/>
<text x="340" y="142" text-anchor="middle" font-size="14" font-weight="bold" fill="#2C2C2A" font-family="Georgia, serif">Gap identified</text>
<text x="340" y="162" text-anchor="middle" font-size="12" fill="#5F5E5A" font-family="Georgia, serif">Bootstrap felt generic, not personal</text>

<line x1="340" y1="176" x2="340" y2="206" stroke="#aaaaaa" stroke-width="1.5" marker-end="url(#arr2)"/>

<!-- Box 2 -->
<rect x="195" y="210" width="290" height="56" rx="8" fill="#E1F5EE" stroke="#1D9E75" stroke-width="0.5"/>
<text x="340" y="232" text-anchor="middle" font-size="14" font-weight="bold" fill="#085041" font-family="Georgia, serif">Remove Bootstrap</text>
<text x="340" y="252" text-anchor="middle" font-size="12" fill="#0F6E56" font-family="Georgia, serif">Strip framework, own CSS from scratch</text>

<line x1="340" y1="266" x2="340" y2="296" stroke="#aaaaaa" stroke-width="1.5" marker-end="url(#arr2)"/>

<!-- Box 3 -->
<rect x="195" y="300" width="290" height="56" rx="8" fill="#E1F5EE" stroke="#1D9E75" stroke-width="0.5"/>
<text x="340" y="322" text-anchor="middle" font-size="14" font-weight="bold" fill="#085041" font-family="Georgia, serif">Custom CSS rewrite</text>
<text x="340" y="342" text-anchor="middle" font-size="12" fill="#0F6E56" font-family="Georgia, serif">Grid, flex, motion, breakpoints</text>

<line x1="340" y1="356" x2="340" y2="386" stroke="#aaaaaa" stroke-width="1.5" marker-end="url(#arr2)"/>

<!-- Box 4 -->
<rect x="195" y="390" width="290" height="56" rx="8" fill="#E1F5EE" stroke="#1D9E75" stroke-width="0.5"/>
<text x="340" y="412" text-anchor="middle" font-size="14" font-weight="bold" fill="#085041" font-family="Georgia, serif">JS enhancements</text>
<text x="340" y="432" text-anchor="middle" font-size="12" fill="#0F6E56" font-family="Georgia, serif">Canvas bg, cursor, transitions, draggable gem</text>

<line x1="340" y1="446" x2="340" y2="476" stroke="#aaaaaa" stroke-width="1.5" marker-end="url(#arr2)"/>

<!-- Box 5 -->
<rect x="195" y="480" width="290" height="56" rx="8" fill="#E1F5EE" stroke="#1D9E75" stroke-width="0.5"/>
<text x="340" y="502" text-anchor="middle" font-size="14" font-weight="bold" fill="#085041" font-family="Georgia, serif">Animations + effects</text>
<text x="340" y="522" text-anchor="middle" font-size="12" fill="#0F6E56" font-family="Georgia, serif">Animated bg, object transitions, motion</text>

<line x1="340" y1="536" x2="340" y2="566" stroke="#aaaaaa" stroke-width="1.5" marker-end="url(#arr2)"/>

<!-- Box 6 -->
<rect x="195" y="570" width="290" height="56" rx="8" fill="#E1F5EE" stroke="#1D9E75" stroke-width="0.5"/>
<text x="340" y="592" text-anchor="middle" font-size="14" font-weight="bold" fill="#085041" font-family="Georgia, serif">Content expansion</text>
<text x="340" y="612" text-anchor="middle" font-size="12" fill="#0F6E56" font-family="Georgia, serif">Resume page, case study pages per project</text>

<line x1="340" y1="626" x2="340" y2="656" stroke="#aaaaaa" stroke-width="1.5" marker-end="url(#arr2)"/>

<!-- Box 7 -->
<rect x="195" y="660" width="290" height="56" rx="8" fill="#FAECE7" stroke="#D85A30" stroke-width="0.5"/>
<text x="340" y="682" text-anchor="middle" font-size="14" font-weight="bold" fill="#4A1B0C" font-family="Georgia, serif">GitHub Pages — V2 live</text>
<text x="340" y="702" text-anchor="middle" font-size="12" fill="#993C1D" font-family="Georgia, serif">Accessibility, reduced motion, personal touch</text>
</svg>
