<svg width="680" height="580" viewBox="0 0 680 580" xmlns="http://www.w3.org/2000/svg" style="background:#ffffff;">
<defs><marker id="arr1" viewBox="0 0 10 10" refX="8" refY="5" markerWidth="6" markerHeight="6" orient="auto-start-reverse"><path d="M2 1L8 5L2 9" fill="none" stroke="#aaaaaa" stroke-width="1.5" stroke-linecap="round" stroke-linejoin="round"/></marker></defs>

<!-- Legend -->
<rect x="40" y="40" width="12" height="12" rx="2" fill="#F1EFE8" stroke="#888780" stroke-width="0.5"/>
<text x="60" y="51" font-size="11" fill="#555" font-family="Georgia, serif">Research</text>
<rect x="40" y="60" width="12" height="12" rx="2" fill="#EEEDFE" stroke="#534AB7" stroke-width="0.5"/>
<text x="60" y="71" font-size="11" fill="#555" font-family="Georgia, serif">Design</text>
<rect x="40" y="80" width="12" height="12" rx="2" fill="#E1F5EE" stroke="#1D9E75" stroke-width="0.5"/>
<text x="60" y="91" font-size="11" fill="#555" font-family="Georgia, serif">Build</text>
<rect x="40" y="100" width="12" height="12" rx="2" fill="#FAECE7" stroke="#D85A30" stroke-width="0.5"/>
<text x="60" y="111" font-size="11" fill="#555" font-family="Georgia, serif">Deploy</text>

<!-- Box 1 -->
<rect x="195" y="130" width="290" height="56" rx="8" fill="#F1EFE8" stroke="#888780" stroke-width="0.5"/>
<text x="340" y="152" text-anchor="middle" font-size="14" font-weight="bold" fill="#2C2C2A" font-family="Georgia, serif">Problem definition</text>
<text x="340" y="172" text-anchor="middle" font-size="12" fill="#5F5E5A" font-family="Georgia, serif">Professional portfolio for employers</text>

<line x1="340" y1="186" x2="340" y2="216" stroke="#aaaaaa" stroke-width="1.5" marker-end="url(#arr1)"/>

<!-- Box 2 -->
<rect x="195" y="220" width="290" height="56" rx="8" fill="#EEEDFE" stroke="#534AB7" stroke-width="0.5"/>
<text x="340" y="242" text-anchor="middle" font-size="14" font-weight="bold" fill="#3C3489" font-family="Georgia, serif">Figma wireframes</text>
<text x="340" y="262" text-anchor="middle" font-size="12" fill="#534AB7" font-family="Georgia, serif">Low + high fidelity, layout planning</text>

<line x1="340" y1="276" x2="340" y2="306" stroke="#aaaaaa" stroke-width="1.5" marker-end="url(#arr1)"/>

<!-- Box 3 -->
<rect x="195" y="310" width="290" height="56" rx="8" fill="#E1F5EE" stroke="#1D9E75" stroke-width="0.5"/>
<text x="340" y="332" text-anchor="middle" font-size="14" font-weight="bold" fill="#085041" font-family="Georgia, serif">Bootstrap 5 build</text>
<text x="340" y="352" text-anchor="middle" font-size="12" fill="#0F6E56" font-family="Georgia, serif">HTML, CSS, responsive layout</text>

<line x1="340" y1="366" x2="340" y2="396" stroke="#aaaaaa" stroke-width="1.5" marker-end="url(#arr1)"/>

<!-- Box 4 -->
<rect x="195" y="400" width="290" height="56" rx="8" fill="#E1F5EE" stroke="#1D9E75" stroke-width="0.5"/>
<text x="340" y="422" text-anchor="middle" font-size="14" font-weight="bold" fill="#085041" font-family="Georgia, serif">Testing</text>
<text x="340" y="442" text-anchor="middle" font-size="12" fill="#0F6E56" font-family="Georgia, serif">Devices, browsers, accessibility</text>

<line x1="340" y1="456" x2="340" y2="486" stroke="#aaaaaa" stroke-width="1.5" marker-end="url(#arr1)"/>

<!-- Box 5 -->
<rect x="195" y="490" width="290" height="56" rx="8" fill="#FAECE7" stroke="#D85A30" stroke-width="0.5"/>
<text x="340" y="512" text-anchor="middle" font-size="14" font-weight="bold" fill="#4A1B0C" font-family="Georgia, serif">GitHub Pages launch — V1</text>
<text x="340" y="532" text-anchor="middle" font-size="12" fill="#993C1D" font-family="Georgia, serif">Live, positive feedback from peers</text>
</svg>
