<svg width="680" height="830" viewBox="0 0 680 830" xmlns="http://www.w3.org/2000/svg" style="background:#ffffff;">
<defs><marker id="arr1" viewBox="0 0 10 10" refX="8" refY="5" markerWidth="6" markerHeight="6" orient="auto-start-reverse"><path d="M2 1L8 5L2 9" fill="none" stroke="#aaaaaa" stroke-width="1.5" stroke-linecap="round" stroke-linejoin="round"/></marker></defs>

<!-- Legend -->
<rect x="40" y="40" width="12" height="12" rx="2" fill="#EEEDFE" stroke="#534AB7" stroke-width="0.5"/>
<text x="60" y="51" font-size="11" fill="#555" font-family="Georgia, serif">Planning</text>
<rect x="40" y="60" width="12" height="12" rx="2" fill="#E1F5EE" stroke="#1D9E75" stroke-width="0.5"/>
<text x="60" y="71" font-size="11" fill="#555" font-family="Georgia, serif">Design + Build</text>
<rect x="40" y="80" width="12" height="12" rx="2" fill="#FAECE7" stroke="#D85A30" stroke-width="0.5"/>
<text x="60" y="91" font-size="11" fill="#555" font-family="Georgia, serif">Deploy</text>

<!-- Box 1 -->
<rect x="195" y="110" width="290" height="56" rx="8" fill="#EEEDFE" stroke="#534AB7" stroke-width="0.5"/>
<text x="340" y="132" text-anchor="middle" font-size="14" font-weight="bold" fill="#3C3489" font-family="Georgia, serif">Kickoff + requirements gathering</text>
<text x="340" y="152" text-anchor="middle" font-size="12" fill="#534AB7" font-family="Georgia, serif">User stories, vision, project scope</text>
<text x="497" y="139" font-size="11" fill="#999" font-family="Georgia, serif">Week 1</text>

<line x1="340" y1="166" x2="340" y2="196" stroke="#aaaaaa" stroke-width="1.5" marker-end="url(#arr1)"/>

<!-- Box 2 -->
<rect x="195" y="200" width="290" height="56" rx="8" fill="#EEEDFE" stroke="#534AB7" stroke-width="0.5"/>
<text x="340" y="222" text-anchor="middle" font-size="14" font-weight="bold" fill="#3C3489" font-family="Georgia, serif">Requirements analysis</text>
<text x="340" y="242" text-anchor="middle" font-size="12" fill="#534AB7" font-family="Georgia, serif">Use case diagram, DFD, state chart</text>
<text x="497" y="229" font-size="11" fill="#999" font-family="Georgia, serif">Week 1–2</text>

<line x1="340" y1="256" x2="340" y2="286" stroke="#aaaaaa" stroke-width="1.5" marker-end="url(#arr1)"/>

<!-- Box 3 -->
<rect x="195" y="290" width="290" height="56" rx="8" fill="#EEEDFE" stroke="#534AB7" stroke-width="0.5"/>
<text x="340" y="312" text-anchor="middle" font-size="14" font-weight="bold" fill="#3C3489" font-family="Georgia, serif">Requirements definition</text>
<text x="340" y="332" text-anchor="middle" font-size="12" fill="#534AB7" font-family="Georgia, serif">33 functional + 7 non-functional reqs</text>
<text x="497" y="319" font-size="11" fill="#999" font-family="Georgia, serif">Week 2–3</text>

<line x1="340" y1="346" x2="340" y2="376" stroke="#aaaaaa" stroke-width="1.5" marker-end="url(#arr1)"/>

<!-- Box 4 -->
<rect x="195" y="380" width="290" height="56" rx="8" fill="#E1F5EE" stroke="#1D9E75" stroke-width="0.5"/>
<text x="340" y="402" text-anchor="middle" font-size="14" font-weight="bold" fill="#085041" font-family="Georgia, serif">Architecture design</text>
<text x="340" y="422" text-anchor="middle" font-size="12" fill="#0F6E56" font-family="Georgia, serif">3-tier client-side MVC pattern</text>
<text x="497" y="409" font-size="11" fill="#999" font-family="Georgia, serif">Week 4</text>

<line x1="340" y1="436" x2="340" y2="466" stroke="#aaaaaa" stroke-width="1.5" marker-end="url(#arr1)"/>

<!-- Box 5 -->
<rect x="195" y="470" width="290" height="56" rx="8" fill="#E1F5EE" stroke="#1D9E75" stroke-width="0.5"/>
<text x="340" y="492" text-anchor="middle" font-size="14" font-weight="bold" fill="#085041" font-family="Georgia, serif">Detailed design</text>
<text x="340" y="512" text-anchor="middle" font-size="12" fill="#0F6E56" font-family="Georgia, serif">Control flow, sequence, collaboration</text>
<text x="497" y="499" font-size="11" fill="#999" font-family="Georgia, serif">Week 4–5</text>

<line x1="340" y1="526" x2="340" y2="556" stroke="#aaaaaa" stroke-width="1.5" marker-end="url(#arr1)"/>

<!-- Box 6 -->
<rect x="195" y="560" width="290" height="56" rx="8" fill="#E1F5EE" stroke="#1D9E75" stroke-width="0.5"/>
<text x="340" y="582" text-anchor="middle" font-size="14" font-weight="bold" fill="#085041" font-family="Georgia, serif">Implementation</text>
<text x="340" y="602" text-anchor="middle" font-size="12" fill="#0F6E56" font-family="Georgia, serif">HTML/CSS/JS, Chart.js, localStorage</text>
<text x="497" y="589" font-size="11" fill="#999" font-family="Georgia, serif">Week 5–6</text>

<line x1="340" y1="616" x2="340" y2="646" stroke="#aaaaaa" stroke-width="1.5" marker-end="url(#arr1)"/>

<!-- Box 7 -->
<rect x="195" y="650" width="290" height="56" rx="8" fill="#E1F5EE" stroke="#1D9E75" stroke-width="0.5"/>
<text x="340" y="672" text-anchor="middle" font-size="14" font-weight="bold" fill="#085041" font-family="Georgia, serif">Testing</text>
<text x="340" y="692" text-anchor="middle" font-size="12" fill="#0F6E56" font-family="Georgia, serif">Unit, integration, system, UAT — 15/15 pass</text>
<text x="497" y="679" font-size="11" fill="#999" font-family="Georgia, serif">Week 7</text>

<line x1="340" y1="706" x2="340" y2="736" stroke="#aaaaaa" stroke-width="1.5" marker-end="url(#arr1)"/>

<!-- Box 8 -->
<rect x="195" y="740" width="290" height="56" rx="8" fill="#FAECE7" stroke="#D85A30" stroke-width="0.5"/>
<text x="340" y="762" text-anchor="middle" font-size="14" font-weight="bold" fill="#4A1B0C" font-family="Georgia, serif">Deployment + final submission</text>
<text x="340" y="782" text-anchor="middle" font-size="12" fill="#993C1D" font-family="Georgia, serif">Netlify, documentation, Dec 3 2025</text>
<text x="497" y="769" font-size="11" fill="#999" font-family="Georgia, serif">Week 8</text>
</svg>
