<svg width="680" height="680" viewBox="0 0 680 680" xmlns="http://www.w3.org/2000/svg" style="background:#ffffff;">
<defs><marker id="arr2" viewBox="0 0 10 10" refX="8" refY="5" markerWidth="6" markerHeight="6" orient="auto-start-reverse"><path d="M2 1L8 5L2 9" fill="none" stroke="#aaaaaa" stroke-width="1.5" stroke-linecap="round" stroke-linejoin="round"/></marker></defs>

<!-- Legend -->
<rect x="40" y="40" width="12" height="12" rx="2" fill="#E1F5EE" stroke="#1D9E75" stroke-width="0.5"/>
<text x="60" y="51" font-size="11" fill="#555" font-family="Georgia, serif">Build</text>
<rect x="40" y="60" width="12" height="12" rx="2" fill="#FAECE7" stroke="#D85A30" stroke-width="0.5"/>
<text x="60" y="71" font-size="11" fill="#555" font-family="Georgia, serif">Deploy</text>

<!-- Box 1 -->
<rect x="195" y="100" width="290" height="56" rx="8" fill="#E1F5EE" stroke="#1D9E75" stroke-width="0.5"/>
<text x="340" y="122" text-anchor="middle" font-size="14" font-weight="bold" fill="#085041" font-family="Georgia, serif">Project setup</text>
<text x="340" y="142" text-anchor="middle" font-size="12" fill="#0F6E56" font-family="Georgia, serif">React 19, Vite, React Router, CSS Modules</text>

<line x1="340" y1="156" x2="340" y2="186" stroke="#aaaaaa" stroke-width="1.5" marker-end="url(#arr2)"/>

<!-- Box 2 -->
<rect x="195" y="190" width="290" height="56" rx="8" fill="#E1F5EE" stroke="#1D9E75" stroke-width="0.5"/>
<text x="340" y="212" text-anchor="middle" font-size="14" font-weight="bold" fill="#085041" font-family="Georgia, serif">Storefront build</text>
<text x="340" y="232" text-anchor="middle" font-size="12" fill="#0F6E56" font-family="Georgia, serif">Home, shop grid, product detail, search</text>

<line x1="340" y1="246" x2="340" y2="276" stroke="#aaaaaa" stroke-width="1.5" marker-end="url(#arr2)"/>

<!-- Box 3 -->
<rect x="195" y="280" width="290" height="56" rx="8" fill="#E1F5EE" stroke="#1D9E75" stroke-width="0.5"/>
<text x="340" y="302" text-anchor="middle" font-size="14" font-weight="bold" fill="#085041" font-family="Georgia, serif">Checkout flow</text>
<text x="340" y="322" text-anchor="middle" font-size="12" fill="#0F6E56" font-family="Georgia, serif">Cart, shipping, payment, confirmation</text>

<line x1="340" y1="336" x2="340" y2="366" stroke="#aaaaaa" stroke-width="1.5" marker-end="url(#arr2)"/>

<!-- Box 4 -->
<rect x="195" y="370" width="290" height="56" rx="8" fill="#E1F5EE" stroke="#1D9E75" stroke-width="0.5"/>
<text x="340" y="392" text-anchor="middle" font-size="14" font-weight="bold" fill="#085041" font-family="Georgia, serif">Account + auth</text>
<text x="340" y="412" text-anchor="middle" font-size="12" fill="#0F6E56" font-family="Georgia, serif">Protected routes, Supabase, orders, returns</text>

<line x1="340" y1="426" x2="340" y2="456" stroke="#aaaaaa" stroke-width="1.5" marker-end="url(#arr2)"/>

<!-- Box 5 -->
<rect x="195" y="460" width="290" height="56" rx="8" fill="#E1F5EE" stroke="#1D9E75" stroke-width="0.5"/>
<text x="340" y="482" text-anchor="middle" font-size="14" font-weight="bold" fill="#085041" font-family="Georgia, serif">Polish + motion</text>
<text x="340" y="502" text-anchor="middle" font-size="12" fill="#0F6E56" font-family="Georgia, serif">Framer Motion, toasts, cart drawer</text>

<line x1="340" y1="516" x2="340" y2="546" stroke="#aaaaaa" stroke-width="1.5" marker-end="url(#arr2)"/>

<!-- Box 6 -->
<rect x="195" y="550" width="290" height="56" rx="8" fill="#FAECE7" stroke="#D85A30" stroke-width="0.5"/>
<text x="340" y="572" text-anchor="middle" font-size="14" font-weight="bold" fill="#4A1B0C" font-family="Georgia, serif">GitHub Pages deploy</text>
<text x="340" y="592" text-anchor="middle" font-size="12" fill="#993C1D" font-family="Georgia, serif">gh-pages branch, 404 fallback, base path</text>
</svg>
