<svg width="680" height="570" viewBox="0 0 680 570" xmlns="http://www.w3.org/2000/svg" style="background:#ffffff;">
<defs><marker id="arr1" viewBox="0 0 10 10" refX="8" refY="5" markerWidth="6" markerHeight="6" orient="auto-start-reverse"><path d="M2 1L8 5L2 9" fill="none" stroke="#aaaaaa" stroke-width="1.5" stroke-linecap="round" stroke-linejoin="round"/></marker></defs>

<!-- Legend -->
<rect x="40" y="40" width="12" height="12" rx="2" fill="#F1EFE8" stroke="#888780" stroke-width="0.5"/>
<text x="60" y="51" font-size="11" fill="#555" font-family="Georgia, serif">Research</text>
<rect x="40" y="60" width="12" height="12" rx="2" fill="#EEEDFE" stroke="#534AB7" stroke-width="0.5"/>
<text x="60" y="71" font-size="11" fill="#555" font-family="Georgia, serif">Design</text>

<!-- Box 1 -->
<rect x="195" y="100" width="290" height="56" rx="8" fill="#F1EFE8" stroke="#888780" stroke-width="0.5"/>
<text x="340" y="122" text-anchor="middle" font-size="14" font-weight="bold" fill="#2C2C2A" font-family="Georgia, serif">Problem + goals definition</text>
<text x="340" y="142" text-anchor="middle" font-size="12" fill="#5F5E5A" font-family="Georgia, serif">Cart abandonment, checkout friction</text>

<line x1="340" y1="156" x2="340" y2="186" stroke="#aaaaaa" stroke-width="1.5" marker-end="url(#arr1)"/>

<!-- Box 2 -->
<rect x="195" y="190" width="290" height="56" rx="8" fill="#EEEDFE" stroke="#534AB7" stroke-width="0.5"/>
<text x="340" y="212" text-anchor="middle" font-size="14" font-weight="bold" fill="#3C3489" font-family="Georgia, serif">Brand concept</text>
<text x="340" y="232" text-anchor="middle" font-size="12" fill="#534AB7" font-family="Georgia, serif">LUNE: slow-living, textiles, ceramics</text>

<line x1="340" y1="246" x2="340" y2="276" stroke="#aaaaaa" stroke-width="1.5" marker-end="url(#arr1)"/>

<!-- Box 3 -->
<rect x="195" y="280" width="290" height="56" rx="8" fill="#EEEDFE" stroke="#534AB7" stroke-width="0.5"/>
<text x="340" y="302" text-anchor="middle" font-size="14" font-weight="bold" fill="#3C3489" font-family="Georgia, serif">User flow mapping</text>
<text x="340" y="322" text-anchor="middle" font-size="12" fill="#534AB7" font-family="Georgia, serif">Browse → cart → checkout → confirmation</text>

<line x1="340" y1="336" x2="340" y2="366" stroke="#aaaaaa" stroke-width="1.5" marker-end="url(#arr1)"/>

<!-- Box 4 -->
<rect x="195" y="370" width="290" height="56" rx="8" fill="#EEEDFE" stroke="#534AB7" stroke-width="0.5"/>
<text x="340" y="392" text-anchor="middle" font-size="14" font-weight="bold" fill="#3C3489" font-family="Georgia, serif">Figma screen design</text>
<text x="340" y="412" text-anchor="middle" font-size="12" fill="#534AB7" font-family="Georgia, serif">5 screens, spacing, type, design tokens</text>

<line x1="340" y1="426" x2="340" y2="456" stroke="#aaaaaa" stroke-width="1.5" marker-end="url(#arr1)"/>

<!-- Box 5 -->
<rect x="195" y="460" width="290" height="56" rx="8" fill="#EEEDFE" stroke="#534AB7" stroke-width="0.5"/>
<text x="340" y="482" text-anchor="middle" font-size="14" font-weight="bold" fill="#3C3489" font-family="Georgia, serif">Interactive prototype</text>
<text x="340" y="502" text-anchor="middle" font-size="12" fill="#534AB7" font-family="Georgia, serif">Clickable flow, Figma Present</text>
</svg>
